<?xml version="1.0" encoding="UTF-8"?>
<!DOCTYPE svg PUBLIC "-//W3C//DTD SVG 1.1//EN" "http://www.w3.org/Graphics/SVG/1.1/DTD/svg11.dtd">
<svg xmlns="http://www.w3.org/2000/svg" version="1.1" width="310px" height="512px" style="shape-rendering:geometricPrecision; text-rendering:geometricPrecision; image-rendering:optimizeQuality; fill-rule:evenodd; clip-rule:evenodd" xmlns:xlink="http://www.w3.org/1999/xlink">
<g><path style="opacity:0.977" fill="#5928e3" d="M 215.5,0.5 C 217.498,111.828 218.165,223.495 217.5,335.5C 246.502,335.333 275.502,335.5 304.5,336C 260.645,372.023 216.645,407.856 172.5,443.5C 171.333,306.168 171.167,168.835 172,31.5C 186.831,21.5131 201.331,11.1798 215.5,0.5 Z"/></g>
<g><path style="opacity:0.974" fill="#5a28e3" d="M 134.5,61.5 C 135.666,198.999 135.833,336.666 135,474.5C 120.311,486.69 105.478,498.69 90.5,510.5C 89.5,396.502 89.1667,282.502 89.5,168.5C 61.4921,168.833 33.4921,168.5 5.5,167.5C 48.5192,132.143 91.5192,96.8101 134.5,61.5 Z"/></g>
</svg>
