<?xml version="1.0" encoding="utf-8"?>
<!-- Uploaded to: SVG Repo, www.svgrepo.com, Generator: SVG Repo Mixer Tools -->
<svg fill="#000000" width="800px" height="800px" viewBox="0 0 32 32" version="1.1" xmlns="http://www.w3.org/2000/svg">
<title>etc</title>
<path d="M5.5 16c0-1.5-1.25-2.75-2.75-2.75-1.531 0-2.75 1.25-2.75 2.75s1.219 2.75 2.75 2.75c1.5 0 2.75-1.25 2.75-2.75zM13.938 16c0-1.5-1.25-2.75-2.75-2.75s-2.75 1.25-2.75 2.75 1.25 2.75 2.75 2.75 2.75-1.25 2.75-2.75zM22.406 16c0-1.5-1.219-2.75-2.75-2.75-1.5 0-2.75 1.25-2.75 2.75s1.25 2.75 2.75 2.75c1.531 0 2.75-1.25 2.75-2.75z"></path>
</svg>